<svg height="273pt" preserveAspectRatio="xMidYMid meet" viewBox="0 0 624 273" width="624pt" xmlns="http://www.w3.org/2000/svg"><g transform="matrix(.1 0 0 -.1 0 273)"><path d="m745 2275c-110-16-193-40-308-86-375-151-471-315-318-548 72-111 277-288 318-275 13 4 14 3 5-4-11-8-11-10 0-14 7-3 17-6 22-6s12-4 15-9c15-22 54-40 74-35s20 6 1 13c-16 7-15 8 7 8 16 1 29-6 33-15 10-25 8-27-21-20l-28 7 24-17c22-16 24-16 33 0 10 18 43 22 53 6 11-18 26-10 23 13-2 12-8 22-15 22s-19 9-27 20c-14 17-17 18-26 5-8-12-10-11-10 8 0 15-5 22-12 19-7-2-24 4-37 14-13 11-30 19-37 19-8 0-31 9-51 20-20 10-40 17-45 14-4-3-8 1-8 8 0 10-2 10-8 1-14-23-107 61-102 92 1 5-8 12-19 17-11 4-45 44-75 90-44 67-52 84-39 89 10 3 17 20 19 46 7 78 48 140 118 179 11 6 24 19 30 29 21 38 72 76 161 121 50 25 92 48 94 50 3 2-16 4-41 3-75-3-78 11-9 42 82 37 210 60 357 63 209 4 334-14 348-50 3-7 2-13-2-13-4 1-16 1-27 0-16-1-13-6 18-32 33-27 37-35 32-61-7-28-5-30 22-28 51 4 63 0 63-18 0-27-20-44-35-28-19 19-94 11-157-17-54-24-70-44-73-88 0-4-12-26-28-49-19-30-24-46-17-55 7-8 4-17-11-31-11-10-18-26-16-36 3-10 1-20-3-23-15-9-40 7-40 25 0 11-4 22-10 25-5 3-10 0-10-8 0-9-9-12-30-9-16 2-30 8-30 12 0 14-32 21-46 9-16-13-43 8-36 29 2 6-1 12-7 12s-11-8-12-17c0-11-3-13-6-5-3 9-16 11-39 6-19-3-34-2-34 2 1 15 27 44 33 37 4-3 8-1 8 5 3 26 4 31 12 38 4 4 7 2 7-5 0-8 8-6 25 5 14 9 22 20 19 25s1 9 9 9c7 0 14 6 15 13 7 58 19 92 35 95s17 1 7-18c-11-20-10-21 9-10 12 6 27 8 33 4 8-5 9-2 5 11-7 16-1 17 73 13 45-3 83-1 86 4 3 4 23 6 46 4 41-4 107 26 108 50 0 17-41 50-105 82-113 57-308 51-442-12-40-19-73-33-73-30 0 10-66-32-138-89-115-90-222-189-239-222-26-49-32-92-17-112 7-10 14-25 14-33 0-18 80-98 80-80 0 7 12 1 26-14 15-14 30-26 33-26 4 0 13-16 21-35 7-19 16-32 20-30 3 2 19-10 34-26 16-17 41-33 57-36s34-12 40-19c18-22 40-17 99 21 30 19 60 35 65 35 6 0 18 9 28 21 12 13 24 18 37 14 16-5 20-2 20 14 0 12 6 21 14 21 7 0 19 7 26 15 7 9 19 14 26 11s18 2 24 10c7 8 21 14 31 14 36 0 69 22 69 47 0 27 16 31 23 6 3-13 5-12 6 5 1 19 4 21 21 12 12-6 19-19 17-33-1-16 3-21 16-19 9 2 17-2 17-8 0-5-5-10-12-10-9 0-9-3 0-12 7-7 12-19 12-27 0-11-4-11-19 3-11 10-21 13-25 7-10-16 41-49 95-60 60-13 316-15 323-2 3 4 17 6 31 3 15-2 25 0 25 7 0 6-7 11-15 11s-15 5-15 11c0 7 14 9 43 5 116-16 783-23 1117-13 219 7 260 6 390-12 80-12 161-23 180-25 19-3 112-17 205-31 94-15 201-30 238-36 38-5 71-11 75-13s31-7 59-10c71-7 248-35 300-47 23-5 58-9 77-9s38-5 42-11c3-6 20-9 38-6 17 2 72-4 121-14 50-10 110-20 135-23 25-2 88-11 140-20 138-23 154-25 275-42 61-9 130-19 155-24 25-4 128-19 230-34 102-14 228-33 280-41 122-20 142-23 215-30 33-4 74-10 90-15 17-5 55-11 85-15 30-3 82-10 115-15 116-18 145-19 145-6 0 12-87 29-200 41-19 2-80 11-135 20s-174 27-265 41c-91 13-192 28-225 33s-136 21-230 35c-93 14-208 33-255 41s-175 29-285 46-324 51-475 75-318 51-370 58c-142 22-283 43-505 76-110 17-207 33-215 36-27 11-1700 12-1700 1 0-5 7-7 15-4 8 4 17 2 20-2 7-12-156-6-220 7-32 7-56 19-67 34-10 12-22 28-27 34-6 7-7 15-4 18 4 3 1 6-5 6-7 0-12 7-12 15s-9 20-20 27c-34 21-26 68 22 128 29 37 35 49 21 41-32-17-43 8-13 28 14 9 33 27 45 41 51 62 73 78 114 85 27 4 46 3 50-3 7-12 64 36 78 65 5 10 10 34 12 53 4 64-85 125-227 155-81 18-303 18-417 0zm581-81c28-14 54-48 42-59-7-7-108 58-102 66 8 13 21 11 60-7zm-918-77c1-17-7-28-31-40-65-34-109-64-147-99-22-20-40-32-40-28 0 5 5 12 10 15 6 3 10 11 10 18 0 8-3 8-12-1-14-14-28-16-28-2 0 25 70 84 142 120 44 22 83 40 87 40s8-10 9-23zm392-87c-6-11-16-20-23-20s-23-10-36-21c-14-14-26-18-32-12-13 13-1 43 17 43 8 0 14 4 14 9s12 12 28 14c15 2 31 5 35 6 4 0 3-8-3-19zm-140-17c-1-12-50-45-50-33 0 5 6 10 13 10 8 0 8 3-2 9-11 7-10 10 5 14 30 8 34 7 34 0zm-135-53c-3-5-12-10-18-10-7 0-6 4 3 10 19 12 23 12 15 0zm65 0c11-7 12-12 3-21-13-13-33-4-33 17 0 16 9 18 30 4zm-86-35c-4-8-8-15-10-15s-4 7-4 15 4 15 10 15c5 0 7-7 4-15zm191-85c3-6-1-7-9-4-11 4-16 0-16-12 0-9-3-15-6-11-9 8 3 37 15 37 5 0 13-4 16-10zm5-30c0-5-2-10-4-10-3 0-8 5-11 10-3 6-1 10 4 10 6 0 11-4 11-10zm108-76c-9-9-24-14-34-12-16 3-14 6 11 19 35 18 45 15 23-7zm666-198c-3-9-12-12-22-9-15 6-9 11 25 22 1 1 0-5-3-13zm-339-6c3-5 2-10-4-10-5 0-13 5-16 10-3 6-2 10 4 10 5 0 13-4 16-10z"/><path d="m235 2037c-11-7-22-13-25-15-5-4 21-22 33-22 4 0 7 7 7 15s5 15 10 15c6 0 10 5 10 10 0 13-10 12-35-3z"/><path d="m940 2016c0-9-8-16-19-16-22 0-45-25-36-40 3-5-1-10-9-10-9 0-16-4-16-10 0-17 15-11 40 16 18 18 31 23 47 19 18-4 23-1 23 14 0 10-7 24-15 31-12 10-15 10-15-4z"/><path d="m1085 2010c-3-5-2-10 4-10 5 0 13 5 16 10 3 6 2 10-4 10-5 0-13-4-16-10z"/><path d="m1172 1939c-45-44-60-91-22-67 11 7 20 21 20 32 0 13 3 16 13 8 9-7 24 1 56 29l44 39h-34c-26 0-44-9-77-41z"/><path d="m947 1844c-4-4-7-17-7-28 1-19 1-20 11-3 11 19 8 43-4 31z"/><path d="m1330 1560c8-5 22-10 30-10 13 0 13 1 0 10-8 5-22 10-30 10-13 0-13-1 0-10z"/><path d="m822 1500c-11-13-17-39-18-70-1-47 0-50 25-51 14-1 42-2 61-3s45-8 58-14c30-17 98 1 105 27 6 25 47 17 47-9 0-29 38-36 61-11 23 24 39 20 39-10 0-21 21-25 51-8 15 7 24 7 35-1 7-7 20-10 29-7 8 4 17 2 20-3 4-6 15-10 26-10s22-6 25-14c4-10 12-13 27-7 32 11 156 6 170-8 21-21 305-12 292 10-3 4-1 10 5 14 5 3 10 1 10-4 0-14 180-14 310-1 52 6 131 13 175 16 165 11 85 33-130 35-60 1-114 4-119 7s-34 7-65 8c-66 4-330 22-416 29-33 2-132 9-220 15-195 13-251 19-290 30-16 4-57 11-90 14s-79 14-102 26c-54 26-98 26-121 0z"/><path d="m2608 1301c-26-4-61-17-77-29-17-12-40-22-53-22s-48-7-78-16-65-16-78-16c-16 0-22-4-18-14 3-8 1-25-4-38-8-23-7-24 53-29 80-7 322-44 412-62 39-8 111-19 160-25 89-11 669-103 880-140 61-11 187-31 280-45 94-15 231-37 305-50 138-24 307-51 415-65 33-4 143-22 245-39s259-42 350-57c91-14 201-31 245-39s150-26 235-40 194-32 241-40c132-23 120-33 117 102l-3 118-35 3c-19 1-80 10-135 19-136 21-195 30-295 43-47 6-112 16-145 22s-80 12-105 13-54 6-65 12-63 14-115 18-105 11-117 16c-11 4-52 11-90 14-37 4-99 13-136 21-38 8-101 17-140 20-40 4-76 10-82 14-5 5-41 11-80 15-38 4-142 18-230 32-88 13-200 28-250 34-49 5-98 14-108 20-9 5-28 7-42 3-14-3-25-2-25 4 0 16-37 23-188 37-79 8-149 18-155 23-7 5-56 12-109 16-54 3-110 11-125 17-16 7-52 13-81 15-30 2-60 8-67 14-14 12-131 31-187 30-21-1-52 7-69 16-31 15-82 24-141 24-14 0-32 5-40 12-7 7-26 14-43 14-16 1-64 4-105 7s-96 2-122-2z"/><path d="m693 1288c2-7 10-12 16-10 6 1 11-5 11-13s9-15 20-15c30 0 24 16-12 34-38 19-41 20-35 4z"/><path d="m917 1273c-4-3-7-19-7-35 0-23 4-29 18-26 21 4 28 41 9 56-8 7-17 9-20 5z"/><path d="m830 1252c-18-8-22-52-4-52 6 0 14 8 18 18 3 9 9 23 12 30 6 13-2 14-26 4z"/><path d="m670 1232c0-8 3-13 6-9 4 3 13 0 20-8 23-23 209-73 384-104 115-20 532-100 630-121 52-11 133-27 180-35s164-30 260-49 186-37 200-40c94-18 493-97 530-105 96-22 168-31 185-24 11 4 16 2 12-4-3-5-1-10 6-10 7-1 53-9 102-18 50-10 104-19 120-21 17-2 42-6 56-10 19-4 26-2 26 9 0 8-6 13-12 11-6-3-24 0-39 6-17 6-25 6-21 0 8-13 3-13-32 1-15 6-44 11-63 10-27 0-31 2-20 10 11 7 7 8-14 3-17-4-27-3-23 3 3 5-11 10-31 10-57 3-82 7-82 14 0 4-24 9-52 13-114 13-138 18-132 28 4 6-12 7-42 4-37-5-44-4-29 4 19 10 18 10-3 6-13-2-39 2-59 10-20 9-50 16-67 16s-46 7-65 15c-19 9-73 18-120 21-59 4-78 8-61 13 24 7 24 7 3 8-14 1-23 7-23 16s-10 19-22 24c-27 10-46 2-27-10 8-5 10-9 4-10-5 0-1-5 10-10 17-8 17-9-5-4-14 2-40 5-58 5-20 0-31 4-27 10s-10 10-34 10c-23 0-41 5-41 10 0 6-10 10-22 8-32-3-98 12-98 23 0 5 13 6 29 3s31-2 35 4c10 17-25 37-68 39-54 3-110 14-116 23-9 14-100 24-100 11 0-6 11-13 25-17 31-8 32-20 4-35-12-6-19-7-15-1 3 6-2 8-12 5-18-4-77 36-95 64-4 7-14 13-21 13-17 0-27 25-20 45 5 11 2 13-9 9-18-6-32-57-22-74 4-6 13-9 21-6s11 0 7-10c-6-17-19-18-29-3-3 6-19 9-35 7-16-3-29-1-29 4 0 4-10 8-22 8-19 0-20 2-8 11 12 8 9 9-13 5-22-5-29-2-36 16-8 22-8 22-24-7-12-22-16-25-17-12 0 14-5 17-20 12-16-5-20-2-20 14 0 27-16 27-30 1-8-15-17-19-31-15-10 4-29 8-42 9-12 2-30 7-39 11-10 4-23 5-30 3-7-3-20 4-28 15-12 14-23 18-38 13-12-4-20-12-17-17 4-5 2-9-4-9-5 0-13 5-16 10-4 6-11 8-16 5-5-4-15 0-23 8-9 8-49 17-103 21-128 11-137 13-180 27-21 7-42 12-46 11-16-5-48 20-45 35 2 9-5 17-15 19-13 2-17-2-13-12 7-19-10-18-32 4-23 22-52 24-52 4zm1370-261c0-5-7-11-14-14-10-4-13-1-9 9 6 15 23 19 23 5z"/><path d="m990 1190c0-6 7-10 15-10s15 2 15 4-7 6-15 10c-8 3-15 1-15-4z"/><path d="m1798 1193c7-3 16-2 19 1 4 3-2 6-13 5-11 0-14-3-6-6z"/><path d="m1858 1193c6-2 18-2 25 0 6 3 1 5-13 5s-19-2-12-5z"/><path d="m2190 1180c-27-21-21-27 35-32 21-2 30 1 30 12 0 8-7 14-17 12-9-1-18 4-20 12-2 13-7 12-28-4z"/><path d="m1030 1180c0-5 5-10 10-10 6 0 10 5 10 10 0 6-4 10-10 10-5 0-10-4-10-10z"/><path d="m2312 949c2-6 8-10 13-10s11 4 13 10-4 11-13 11-15-5-13-11z"/><path d="m3400 673c0-5 48-17 108-27 59-10 113-21 121-24 10-4 12-1 6 9-5 8-1 7 12-3 11-10 28-18 39-18 29 0 226-29 339-50 212-40 368-64 425-65 19 0 37-3 40-7 9-11 103-22 96-10-3 6 0 12 6 14 7 3-3 5-22 5-66 1-143 13-157 25-8 7-30 11-49 10-22-2-44 5-63 19-22 16-37 20-57 15-18-5-30-3-35 6-5 8-9 9-9 2s-11-9-26-6c-19 3-25 1-20-7 11-17-29-14-44 4-14 17-45 21-35 5 8-13-1-13-26 1-11 5-17 14-14 19 3 4-4 6-15 3-14-4-20 0-20 11 0 21-56 22-64 1-5-14-9-14-35 0-16 8-37 12-45 9-9-4-39 1-67 10-27 9-54 14-60 11-9-6-56 2-168 26-69 16-161 22-161 12z"/><path d="m4613 463c9-2 23-2 30 0 6 3-1 5-18 5-16 0-22-2-12-5z"/><path d="m4670 458c0-4 14-8 31-8s28 4 24 10c-7 11-55 9-55-2z"/><path d="m4743 455c0-10 6-13 18-10 9 3 20 1 24-5 8-13 55-13 55-1 0 10-13 15-66 26-24 4-31 2-31-10z"/><path d="m4855 430c3-5 16-9 28-8 12 0 40-2 62-6l40-6-45 15c-52 17-94 20-85 5z"/><path d="m5095 400c-16-7-17-9-3-9 9-1 20 4 23 9 7 11 7 11-20 0z"/><path d="m5146 390c5-5 25-12 44-15l35-5-35 14c-42 18-58 20-44 6z"/><path d="m5680 300c-19-6-14-8 25-7 35 0 44 2 30 8-24 9-23 9-55-1z"/><path d="m5760 286c0-2 9-6 20-9s20-1 20 4-9 9-20 9-20-2-20-4z"/><path d="m5868 263c6-2 18-2 25 0 6 3 1 5-13 5s-19-2-12-5z"/></g></svg>