<svg height="194pt" preserveAspectRatio="xMidYMid meet" viewBox="0 0 383 194" width="383pt" xmlns="http://www.w3.org/2000/svg"><g transform="matrix(.1 0 0 -.1 0 194)"><path d="m3534 1742c-11-1-35-16-53-32-18-17-38-30-44-30-17 0-83-24-151-54-32-14-67-26-78-26-10 0-29-6-41-14s-38-17-57-21-51-15-70-25c-19-11-98-42-175-70s-153-56-170-62c-16-7-41-19-55-28-14-8-36-21-50-26-103-45-150-69-154-81-3-7-15-13-27-13-11 0-54-13-96-30-41-16-80-30-88-30-11 0-81-28-160-65-56-26-107-45-122-45-8 0-21-7-29-15-9-8-24-15-33-15-24 0-88-27-96-40-3-5-14-10-24-10s-24-7-32-16c-7-8-21-13-31-11-10 3-18 2-18-3 0-15-33-21-42-8-7 10-11 10-14 1-3-7-18-9-40-6-19 3-45 1-57-5-12-5-30-13-40-16s-15-10-12-16-2-13-11-17c-10-4-19-2-22 5-7 21-60 14-76-10-15-21-15-23 4-30 40-15 24-46-40-78-74-37-79-48-7-15 72 34 97 33 97-4 0-34-15-49-58-57-18-4-32-10-32-15 0-4-19-13-42-19-93-24-139-44-133-58 4-12 2-12-8-4-8 7-17 9-21 5-7-7-29-13-55-15-16-2 28-37 47-38 7 0 20 7 28 15 22 21 65 30 74 16 16-26 154-7 148 20-2 6 12 20 30 30 18 11 31 15 27 9-3-5-2-10 4-10 5 0 11 5 13 10 2 6 13 12 26 13 12 0 22 4 22 8s25 17 55 30c55 23 70 44 38 52-17 4-17 5 0 6 10 0 20-5 23-13 6-15 9-13 150 42 78 32 309 140 524 246 296 147 480 228 527 234 38 4 41 3 36-16s-62-72-78-72c-4 0-19-9-35-20-15-11-74-44-131-73-57-30-122-66-143-81-21-14-43-26-49-26-14 0-117-71-117-81 0-4-17-13-37-20-21-6-44-16-51-22-17-13-170-78-202-85-30-6-59-32-38-33 7 0 3-4-9-9-13-5-23-14-23-20 0-13 6-13 31 1 16 8 25 7 41-8 20-18 20-17 13 22l-6 40 20-40c10-22 20-34 20-27 1 6 6 12 12 12s9-7 6-15c-4-8-2-17 4-20 5-4 12 1 15 9 9 23 23 20 17-3-4-17 0-19 31-18 30 2 36 5 32 20-5 21 2 22 23 3 25-23 71-31 71-13 0 8 11 22 25 31s27 27 31 41c3 14 10 25 14 25s7 8 6 18c-1 12 5 16 23 14 13-2 32 5 45 16 11 11 37 22 56 24s47 12 62 22c16 10 35 16 43 12 8-3 15-2 15 2 0 5 15 26 34 47 29 33 38 37 65 32 16-4 33-2 36 3 3 6 1 10-6 10-8 0-8 4 1 15 7 9 19 14 26 11 6-2 14 4 17 15 3 12 17 22 37 25 17 4 34 13 37 20 7 19 100 61 173 78 69 16 138 48 152 68 4 7 8 25 8 41 0 19 7 30 23 36 13 5 37 25 54 44 16 19 51 47 76 61 75 44 137 110 137 145 0 46 16 77 59 116 35 32 60 72 49 79-1 1-12 0-24-2zm-1434-992c0-5-2-10-4-10-3 0-8 5-11 10-3 6-1 10 4 10 6 0 11-4 11-10z"/><path d="m811 1641c-11-7-10-11 7-20 34-18 62-14 62 9 0 15-7 20-27 20-16 0-34-4-42-9z"/><path d="m270 1614c-42-27-61-59-51-87 17-44 39-41 92 15 27 28 49 55 49 59 0 5-57 31-64 29-1 0-12-8-26-16z"/><path d="m895 1566c19-14 19-15 2-33-18-20-23-43-9-43 17 0 52 32 52 49 0 23-19 41-44 41-19 0-20 0-1-14z"/><path d="m740 1460c0-5-17-10-38-10-20 0-84-9-141-20-58-11-135-20-173-21-75-2-85-14-27-35 69-25 320-5 353 29 11 11 26 15 40 11 18-4 28 1 45 25l22 31h-40c-23 0-41-4-41-10z"/><path d="m260 1400c-9-17-8-20 10-20 13 0 20 7 20 20 0 11-4 20-10 20-5 0-14-9-20-20z"/><path d="m0 1045v-148l38 8c20 4 55 8 77 9 36 1 42-2 60-36 11-21 31-42 45-47s33-12 43-16c13-5 17-2 17 14 0 14 6 21 19 21 18 0 19 2 4 30-13 28-13 33 2 56 16 24 15 26-2 40-15 11-16 13-2 14 9 0 24 9 34 20 16 18 16 20 1 26-9 3-15 14-14 23 2 11-5 17-22 19-29 4-51 28-44 47 3 7 1 16-5 20-20 12-116 33-183 40l-68 7zm228 41c-4-29-44-34-51-6s20 55 40 39c7-7 13-22 11-33zm30-127c-19-12-25-3-20 31l4 31 15-27c11-22 11-29 1-35z"/><path d="m547 953c-2-4-8-22-11-40-5-20-12-30-20-27s-16-4-19-15c-4-16 0-21 14-21 10 0 19-7 19-15 0-9-9-15-25-15s-25-6-25-15c0-8 5-15 10-15 6 0 8-11 4-26-5-19-4-25 5-20 6 4 11 15 12 24 0 11 3 12 6 5 2-7 11-13 19-13s14-4 14-10c0-5-4-10-9-10s-12-8-14-17c-4-17-5-17-6 0 0 10-5 16-10 13-14-9-1-45 20-57 15-7 24-6 36 6 10 10 24 14 37 10 47-14 56-13 56 1 0 8-5 14-11 14-5 0-7 4-4 10 3 5 3 25-1 44-5 30-11 35-38 39l-31 4 33 1c29 2 35-2 45-28 7-18 17-28 24-26 7 3 13 1 13-5 0-5-7-12-15-15-22-9-18-27 4-21 12 3 22-1 26-11 5-13 9-11 23 9 9 13 17 27 17 32 0 22 75-18 76-41 0-10 3-12 6-5 2 7-3 23-11 35-9 12-16 19-16 15s-10-1-23 8c-13 8-26 13-29 10s-11 1-17 9c-16 19 2 56 28 56 21 0 55-35 47-48-3-5 1-15 9-22s15-18 15-25c0-20 27-39 33-23 4 8 6 7 6-4 1-10 5-18 10-18s12 8 14 18c4 16 5 16 6 0 0-10 7-18 14-18 22 0 27 11 15 30-9 14-8 22 3 36 8 9 13 25 11 35-5 27 17 33 27 7 5-13 22-31 38-40 28-16 31-16 54 0l24 17-29 5c-23 4-44 23-52 47-2 6-167 38-250 49-38 5-40 7-36 35 2 17 0 29-7 29-6 0-8-6-5-14 3-7-2-16-10-19-10-4-16-1-16 7 0 7-19 18-42 23-24 6-53 14-64 18-12 4-24 3-27-2z"/><path d="m243 733c9-9 20-13 24-9s1 11-7 16c-25 16-35 11-17-7z"/><path d="m2925 714c-38-13-78-24-87-24s-38-18-63-40-55-40-66-40c-20 0-105-82-114-112-3-9-19-19-35-23-16-3-31-14-33-23-3-14-6-12-14 7-10 24-10 24-29 5-14-14-31-19-69-17-42 2-47 0-30-9 33-19 45-36 39-52-10-26-32-19-27 8 7 34-35 54-108 52-48-1-66-7-120-42-35-22-90-52-121-67-45-20-56-30-51-42 7-21-12-34-52-36l-30-1 30-7 30-6-43-14c-23-8-42-20-42-28 0-7-9-13-21-13-13 0-18-4-13-12 5-7 2-9-9-5s-14 2-10-9c3-9 0-12-9-9-8 3-21-1-28-9-19-24 27-39 57-20 13 8 33 12 47 8 20-5 33 2 65 35 26 27 49 41 66 41 14 0 28 6 31 14s24 18 45 21c24 4 52 19 69 35 29 29 114 72 162 84 19 4 30 2 36-10 7-12 17-15 36-10 22 5 26 11 21 27-7 20-6 20 19 4 14-10 26-13 26-7s-4 14-10 17c-5 3-10 11-10 18 0 6 6 3 13-7 12-16 16-15 67 9 30 14 62 30 70 35 8 4 42 16 75 26 33 9 85 32 116 51 32 18 64 33 73 33 8 0 28 12 44 28 42 41 106 82 128 83 18 0 17 1-3 16-13 8-23 21-23 28 0 30-25 33-95 9z"/><path d="m776 717c3-8 11-14 19-14 20 0 19 4-5 17-15 8-18 8-14-3z"/><path d="m743 705c0-8 4-12 9-9 4 3 8 9 8 15 0 5-4 9-8 9-5 0-9-7-9-15z"/><path d="m270 689c0-4 7-9 15-13 9-3 15 0 15 8 0 7-7 13-15 13s-15-4-15-8z"/><path d="m2505 625c-33-38-45-43-45-20 0 8-4 15-10 15-5 0-10-9-10-19 0-15-7-19-29-19-32 1-54-9-46-22 7-12-12-22-48-27-33-3-52-22-38-36 11-11 103 16 139 41 15 10 50 29 77 41 82 37 98 50 84 67-19 23-42 16-74-21z"/><path d="m107 634c-8-8 1-24 14-24 5 0 9 7 9 15 0 15-12 20-23 9z"/><path d="m715 616c-41-15-55-25-55-39 0-9 13-11 41-9 30 3 45 0 58-15 18-19 18-43 0-43-6 0-7 5-3 11 11 18-47 1-149-43-88-38-123-58-101-58 5 0 14 4 19 9 6 5 48 22 95 39 47 16 94 33 105 37s4-3-15-16c-19-12-64-32-100-43-74-24-115-49-105-65 7-12 86-11 95 1 3 4 27 13 53 20 42 11 49 10 64-5 17-17 17-18-5-23-31-9-28-24 5-24 26 0 26-1 7-16-10-8-13-13-6-9s32 3 55-1l42-7-55-13c-74-18-73-18-92 16-21 37-46 38-107 6-43-22-43-23-18-28 16-3 31 0 38 8 15 18 25 11 33-23 9-36 82-103 112-103 13 0 26-4 29-10 9-15 38-13 29 3-4 6 5 0 21-15 15-16 35-28 43-28 12 0 11 5-6 20-12 12-22 25-22 30 0 6-9 10-19 10-11 0-23 5-27 11-4 8 8 10 39 8 43-4 46-2 44 19-1 12-7 20-13 18-7-3-10 3-7 15 3 10 8 19 12 19 13 0 35-46 39-79 4-38 26-66 46-58 7 3 18 1 24-5 8-8 22-6 47 6 34 16 35 19 21 35-21 23-20 32 2 24 15-5 15-4 2 10-21 21-65 34-55 16 5-8-2-5-16 6-13 11-26 22-29 24s6 0 19-4c16-5 21-4 17 4-4 6-16 11-27 11-10 0-19 6-19 14 0 7-7 19-15 26s-13 16-10 20c3 5-1 11-7 13-7 3 8 6 34 6 27 1 53 7 62 16 18 19 21 19 46-2 24-21 26-35 5-27-8 4-27 3-41 0l-25-7 22-23c15-16 31-22 50-20 26 3 35-6 45-48 1-5 2-11 3-15 2-5 6 1 11 12 5 13 3 26-8 38-14 16-13 17 6 17 12 0 22 5 22 10 0 6-8 10-17 10-13 0-14 3-5 12s9 15-1 26c-9 12-9 16 1 20 8 2 2 14-18 32-37 35-39 53-5 44 14-3 33-3 42 2 10 4 20 8 23 9 25 8 39 19 44 31 4 11 2 12-14 1-11-6-20-16-20-21 0-4-7-3-15 4-13 11-13 15-3 21 9 6 9 9 1 9-6 0-15-5-18-11-4-6-14-7-24-4-31 13-121 12-146-1-22-11-25-11-25 4 0 14-2 14-9 3-5-7-13-11-19-7-6 3-13 2-17-4-11-17-22-11-28 16-3 18-1 24 9 20 8-3 14-1 14 4 0 6-5 10-11 10-5 0-8 4-5 9 8 12-13 28-45 36-20 5-25 11-22 26 3 10 1 19-5 19s-16 2-24 4c-7 2-26-2-43-8zm399-157c-27-11-34-10-34 0 0 11 31 20 44 13 5-3 1-9-10-13zm-254-93c0-14-35-28-44-18-9 8 25 42 35 36 5-3 9-11 9-18zm-30-76c0-5-2-10-4-10-3 0-8 5-11 10-3 6-1 10 4 10 6 0 11-4 11-10z"/><path d="m220 580c0-5 5-10 11-10 5 0 7 5 4 10-3 6-8 10-11 10-2 0-4-4-4-10z"/><path d="m1060 578c0-4 4-8 9-8 6 0 12 4 15 8 3 5-1 9-9 9s-15-4-15-9z"/><path d="m310 573c0-6 8-17 18-24 16-13 16-13 2 6-8 11-16 22-17 24-2 2-3 0-3-6z"/><path d="m20 560c0-5 4-10 9-10 6 0 13 5 16 10 3 6-1 10-9 10-9 0-16-4-16-10z"/><path d="m1963 549c6-10 15-19 19-19 5 0 8-7 8-15 0-21-30-15-55 11-15 16-32 21-71 21-29 0-57 4-64 8-10 6-12 4-7-8 4-11 1-17-7-17s-17 6-19 13c-4 9-6 9-6-1-1-7-5-11-10-7-5 3-13-5-17-17-3-12-13-28-20-36-19-19-18-28 8-46 17-12 24-13 30-3 5 8 8 7 8-5 0-19 7-21 55-18 49 3 52 19 6 26-42 7-71 26-71 46 0 6 6 5 16-3 17-14 114-22 114-9 0 5 15 8 33 8 17 0 52 5 76 11 30 8 64 9 110 2 36-5 68-7 70-5s1 11-3 20c-5 13-15 15-54 9-43-6-51-4-74 20-15 14-40 28-57 30-28 4-30 2-18-16zm57-23c0-3-4-8-10-11-5-3-10-1-10 4 0 6 5 11 10 11 6 0 10-2 10-4zm-233-22c-3-3-12-4-19-1-8 3-5 6 6 6 11 1 17-2 13-5z"/><path d="m206 542c-10-16 18-59 46-71 16-7 42-26 58-43 28-27 50-30 50-7 0 6-9 7-22 3-13-3-20-3-16 1 6 7 1 15-29 49-8 9-9 16-1 24 7 7-2 16-28 28-22 9-42 19-46 21s-9-1-12-5z"/><path d="m82 503c19-42 31-52 45-38 8 9 2 19-23 39l-34 27z"/><path d="m1423 514c-15-16-16-24-4-24 8 0 24 30 19 35-2 2-9-3-15-11z"/><path d="m1480 515c-7-8-18-15-26-15-7 0-18-8-24-17-8-13-13-14-16-5-7 15-60 16-69 2-4-6-16-8-26-5-11 4-26 2-33-5-8-6-18-10-22-9-20 3-34-2-34-12 0-8 5-8 15 1 12 10 15 10 15 0 0-19 92-4 108 17 6 9 12 11 12 5 0-32 93-1 118 39 14 23 0 26-18 4z"/><path d="m1248 493c7-3 16-2 19 1 4 3-2 6-13 5-11 0-14-3-6-6z"/><path d="m340 480c0-5 5-10 11-10 5 0 7 5 4 10-3 6-8 10-11 10-2 0-4-4-4-10z"/><path d="m1600 475c-7-8-9-15-5-15s1-7-6-17c-13-15-12-15 11-2 26 15 40 29 40 42s-27 8-40-8z"/><path d="m133 446c3-8-1-17-10-20-8-4-13-12-10-19 6-16-14-15-60 3-18 6-33 18-33 26s-4 14-10 14c-20 0-9-38 15-54 14-9 25-23 25-30 0-20 27-28 34-10 4 10 2 12-6 8-7-4-8-3-4 4 9 15 36 16 36 2 0-5 11-10 24-10s26-7 30-15c3-8 12-15 20-15s17-6 19-12c4-10 6-10 6-1 1 6-3 15-9 18-15 9-12 25 4 25s28 48 13 57c-5 3-15-1-21-9-12-17-40-10-42 10-3 36-5 42-15 42-6 0-9-6-6-14z"/><path d="m1205 427c-14-15 5-55 23-49 8 2 10-3 6-15-5-13-2-12 11 5 13 19 14 26 4 38-7 8-18 13-25 10-8-3-11 0-7 10 6 17 2 18-12 1z"/><path d="m1501 403c0-23 3-43 7-45 5-1 5-14 1-28-6-23-7-23-8-3-1 22-21 44-21 23 0-7-6-10-14-7-7 3-26-1-41-9s-31-11-36-8-6-2-3-10c3-9 1-16-5-16s-11 5-11 11c0 5-4 7-10 4-11-7-2 23 13 43 21 27-5 13-48-26-9-8-13-18-9-23 3-5 2-9-3-8-21 4-31-2-29-18 0-11-6-18-15-17s-16-5-16-12c0-17 9-18 25-2 10 10 15 10 22-2 8-13 11-12 24 5 9 11 16 25 16 32 0 10 39 11 44 1 1-2 13-21 28-43 14-22 30-49 36-60 10-19 11-18 23 8 13 30 32 37 23 10-3-10 2-5 11 11 9 15 15 37 12 47s2 24 11 31c13 12 15 8 9-31-3-25-2-39 2-32 5 7 11 12 15 12 3-1 8-1 10-1s0 17-5 38c-5 20-12 48-15 61-3 14-13 31-22 39-9 7-12 11-6 8 7-3 14 5 16 19 4 20 2 23-8 15-9-8-14-6-17 7-3 10-5-1-6-24z"/><path d="m1550 430c0-5 5-10 10-10 6 0 10 5 10 10 0 6-4 10-10 10-5 0-10-4-10-10z"/><path d="m1320 400c0-5 5-10 11-10 5 0 7 5 4 10-3 6-8 10-11 10-2 0-4-4-4-10z"/><path d="m323 392c-6-4-13-17-17-29-6-18-4-21 14-16 16 4 19 10 14 27-6 18-5 19 9 8 13-11 14-18 4-39-9-21-8-27 8-39 22-16 45-18 45-4s33 13 47-1c9-9 16-8 28 5 9 9 23 16 31 16s14 5 14 10c0 9-78 6-115-4-5-2-18 0-28 3-17 6-17 8 4 35l22 29-21-12c-12-6-22-8-22-2 0 12-24 21-37 13z"/><path d="m1286 386c3-9-2-16-13-18-12-2-14-6-6-11 13-8 46 20 38 34-10 15-25 10-19-5z"/><path d="m1567 393c-4-3-7-11-7-17s5-5 12 2c6 6 9 14 7 17-3 3-9 2-12-2z"/><path d="m1257 322c-16-18-16-20 5-38l23-19-18 22c-18 20-18 22 0 31 10 6 15 13 12 16-3 4-13-2-22-12z"/><path d="m316 311c-4-6-12-9-17-6-5 4-9 1-9-4 0-6-7-11-15-11s-15-4-15-10c0-5-7-10-16-10-12 0-14 3-6 13s6 13-8 14-18-5-18-30c0-18 0-37-1-44-1-14-24-11-45 6-14 11-16 11-16-3 0-9 5-16 10-16 6 0 10-4 10-10 0-17-24-11-54 15-25 21-26 25-10 25 39 1-16 22-62 24l-44 2v-58c0-42 3-56 13-52 7 2 21-3 32-12 11-8 15-13 9-10-9 4-9-5-2-35 9-33 15-39 32-37 13 2 21 10 21 23-1 11 5 24 12 28 8 5 11 13 7 18-10 17-13 69-4 69s14-22 11-42c-2-14 34-8 74 12 46 23 88 26 104 6 9-11 8-15-6-21-10-5-24-7-31-6-8 1-24-5-37-13-14-9-30-16-38-16-7 0-26-13-41-29-27-29-28-29-8-40 30-16 56-14 78 7 21 20 84 45 92 37 2-2-7-10-22-16-14-7-26-15-26-19s-10-11-22-15c-14-4-18-8-10-12 6-2 12-11 12-19 0-12 55-14 353-14h354l11 25c6 14 18 25 27 25 8 0 15 4 15 8 0 11-58 3-66-9-3-5-10-9-15-9-6 0-7 5-3 11 4 8 0 9-15 4-13-4-21-2-21 5 0 8-6 8-19 0-15-7-32-6-66 5-25 9-49 14-54 11s-15 1-22 10c-18 22-52 34-118 40-55 5-96 23-56 25 11 0 15 3 8 5-7 3-10 11-7 18 3 8-4 16-15 19-25 6-24 45 1 53 10 3 18 14 18 26 0 17-5 19-37 14-21-4-66-7-101-9-56-2-65 1-81 22-12 16-20 20-25 12z"/><path d="m585 290c3-5 8-10 11-10 2 0 4 5 4 10 0 6-5 10-11 10-5 0-7-4-4-10z"/><path d="m1692 245c-11-12-10-15 3-15 8 0 15 7 15 15 0 18-2 18-18 0z"/><path d="m1303 193c-7-2-13-11-13-19s-4-14-10-14c-5 0-10-7-10-16 0-10-6-14-15-10-8 3-14 0-12-7 1-8-12-12-38-12-33 0-43-5-57-27-18-28-38-37-38-18 0 6-7 10-15 10s-15-7-15-15c0-17-11-20-25-6-6 6-25-3-50-25l-40-34h145c130 1 143 2 126 15-20 15-20 15 0 30 18 14 18 14-8 15-46 0-31 33 17 38 17 2 38 11 48 19 9 9 17 13 17 9s7-1 15 8c20 20 19 29-4 23-14-3-18-1-14 9 3 7 10 12 15 11 6-1 13 4 15 11 5 12-11 15-34 5zm-128-163c-3-5-12-10-18-10-7 0-6 4 3 10 19 12 23 12 15 0z"/><path d="m1705 180c-3-5-1-10 4-10 6 0 11 5 11 10 0 6-2 10-4 10-3 0-8-4-11-10z"/><path d="m1720 115c-15-18-7-31 25-37 38-8 51 16 21 36-31 20-31 20-46 1z"/><path d="m1330 110c0-5 5-10 10-10 6 0 15-10 21-22 15-34 56-60 79-53 11 4 18 11 14 16-3 5-14 7-24 4-22-7-34 19-20 44 14 26-1 35-18 10l-14-20-15 20c-15 22-33 28-33 11z"/><path d="m1626 92c-11-18 7-51 33-61 17-6 20-10 9-10-31-2-19-21 12-21 17 0 30 2 30 5 0 18-33 65-45 65-8 0-14 5-12 11 3 14-19 23-27 11zm51-38c-3-3-12-4-19-1-8 3-5 6 6 6 11 1 17-2 13-5z"/><path d="m3148 63c7-3 16-2 19 1 4 3-2 6-13 5-11 0-14-3-6-6z"/><path d="m1717 53c-15-14-6-25 17-19 15 4 26 1 29-7 2-6 8-9 12-5s0 14-8 23c-16 16-39 20-50 8z"/><path d="m1370 20c0-5 5-10 10-10 6 0 10 5 10 10 0 6-4 10-10 10-5 0-10-4-10-10z"/><path d="m1610 20c0-5 5-10 10-10 6 0 10 5 10 10 0 6-4 10-10 10-5 0-10-4-10-10z"/><path d="m3498 13c6-2 18-2 25 0 6 3 1 5-13 5s-19-2-12-5z"/><path d="m1788 3c6-2 18-2 25 0 6 3 1 5-13 5s-19-2-12-5z"/></g></svg>